<svg xmlns="http://www.w3.org/2000/svg" viewBox="0 0 512 512">
  <defs>
    <linearGradient id="bg" x1="0%" y1="0%" x2="100%" y2="100%">
      <stop offset="0%" stop-color="#14B8A6"/>
      <stop offset="100%" stop-color="#0D9488"/>
    </linearGradient>
    <linearGradient id="checkG" x1="0%" y1="0%" x2="100%" y2="100%">
      <stop offset="0%" stop-color="#0F766E"/>
      <stop offset="100%" stop-color="#0D9488"/>
    </linearGradient>
    <filter id="shadow">
      <feDropShadow dx="0" dy="3" stdDeviation="6" flood-color="#000" flood-opacity="0.12"/>
    </filter>
    <filter id="checkShadow">
      <feDropShadow dx="0" dy="2" stdDeviation="2" flood-color="#0F766E" flood-opacity="0.25"/>
    </filter>
  </defs>

  <!-- רקע -->
  <rect width="512" height="512" rx="112" fill="url(#bg)"/>

  <!-- סל עם צל -->
  <g filter="url(#shadow)">
    <path d="M150 228 L176 368 C178 380 187 392 200 392 L312 392 C325 392 334 380 336 368 L362 228 C363 222 359 217 353 217 L159 217 C153 217 149 222 150 228 Z" fill="white"/>
    <path d="M192 210 C192 178 210 142 256 142 C302 142 320 178 320 210" stroke="white" stroke-width="22" fill="none" stroke-linecap="round"/>
  </g>

  <!-- Y עדין -->
  <path d="M228 250 L256 288 L284 250" stroke="#0D9488" stroke-width="6" fill="none" stroke-linecap="round" stroke-linejoin="round" opacity="0.09"/>
  <line x1="256" y1="288" x2="256" y2="350" stroke="#0D9488" stroke-width="6" stroke-linecap="round" opacity="0.09"/>

  <!-- וי עם צל -->
  <path d="M214 282 L246 314 L306 254" stroke="url(#checkG)" stroke-width="24" fill="none" stroke-linecap="round" stroke-linejoin="round" filter="url(#checkShadow)"/>
</svg>
