<svg xmlns="http://www.w3.org/2000/svg" viewBox="0 0 512 512">
  <defs>
    <linearGradient id="bg" x1="0%" y1="0%" x2="100%" y2="100%">
      <stop offset="0%" stop-color="#14B8A6"/>
      <stop offset="100%" stop-color="#0D9488"/>
    </linearGradient>
    <filter id="shadow">
      <feDropShadow dx="0" dy="3" stdDeviation="6" flood-color="#000" flood-opacity="0.12"/>
    </filter>
  </defs>

  <!-- רקע -->
  <rect width="512" height="512" rx="112" fill="url(#bg)"/>

  <!-- סל -->
  <g filter="url(#shadow)">
    <path d="M150 228 L176 368 C178 380 187 392 200 392 L312 392 C325 392 334 380 336 368 L362 228 C363 222 359 217 353 217 L159 217 C153 217 149 222 150 228 Z" fill="white"/>
    <path d="M192 210 C192 178 210 142 256 142 C302 142 320 178 320 210" stroke="white" stroke-width="22" fill="none" stroke-linecap="round"/>
  </g>

  <!-- Y מוסתר -->
  <path d="M230 250 L256 286 L282 250" stroke="#0D9488" stroke-width="4.5" fill="none" stroke-linecap="round" stroke-linejoin="round" opacity="0.055"/>
  <line x1="256" y1="286" x2="256" y2="345" stroke="#0D9488" stroke-width="4.5" stroke-linecap="round" opacity="0.055"/>

  <!-- וי -->
  <path d="M216 286 L248 318 L304 258" stroke="#14B8A6" stroke-width="20" fill="none" stroke-linecap="round" stroke-linejoin="round"/>
</svg>
